<mxfile host="app.diagrams.net" modified="2021-02-21T20:10:14.290Z" agent="5.0 (Windows NT 10.0; Win64; x64) AppleWebKit/537.36 (KHTML, like Gecko) Chrome/88.0.4324.182 Safari/537.36 Edg/88.0.705.74" etag="wWGpy1FRwuBkHE7fB8mH" version="14.4.2" type="github">
  <diagram id="j3Z4iEj-AahcLPHdQoN0" name="Page-1">
    <mxGraphModel dx="1426" dy="1365" grid="1" gridSize="10" guides="1" tooltips="1" connect="1" arrows="1" fold="1" page="1" pageScale="1" pageWidth="850" pageHeight="1100" math="0" shadow="0">
      <root>
        <mxCell id="0" />
        <mxCell id="1" parent="0" />
        <mxCell id="8FBa52UY_1ct1oGuE3lu-1" value="Entity" style="whiteSpace=wrap;html=1;align=center;" vertex="1" parent="1">
          <mxGeometry x="360" y="10" width="100" height="40" as="geometry" />
        </mxCell>
        <mxCell id="8FBa52UY_1ct1oGuE3lu-2" value="Entity" style="whiteSpace=wrap;html=1;align=center;" vertex="1" parent="1">
          <mxGeometry x="170" y="120" width="100" height="40" as="geometry" />
        </mxCell>
        <mxCell id="8FBa52UY_1ct1oGuE3lu-3" value="Entity" style="whiteSpace=wrap;html=1;align=center;" vertex="1" parent="1">
          <mxGeometry x="360" y="120" width="100" height="40" as="geometry" />
        </mxCell>
        <mxCell id="8FBa52UY_1ct1oGuE3lu-4" value="Entity" style="whiteSpace=wrap;html=1;align=center;" vertex="1" parent="1">
          <mxGeometry x="560" y="120" width="100" height="40" as="geometry" />
        </mxCell>
        <mxCell id="8FBa52UY_1ct1oGuE3lu-5" value="Entity" style="whiteSpace=wrap;html=1;align=center;" vertex="1" parent="1">
          <mxGeometry x="80" y="440" width="100" height="40" as="geometry" />
        </mxCell>
        <mxCell id="8FBa52UY_1ct1oGuE3lu-6" value="Entity" style="whiteSpace=wrap;html=1;align=center;" vertex="1" parent="1">
          <mxGeometry x="240" y="720" width="100" height="40" as="geometry" />
        </mxCell>
        <mxCell id="8FBa52UY_1ct1oGuE3lu-8" value="Attribute" style="ellipse;whiteSpace=wrap;html=1;align=center;fontStyle=4;" vertex="1" parent="1">
          <mxGeometry x="240" y="-60" width="100" height="40" as="geometry" />
        </mxCell>
        <mxCell id="8FBa52UY_1ct1oGuE3lu-9" value="Attribute" style="ellipse;whiteSpace=wrap;html=1;align=center;" vertex="1" parent="1">
          <mxGeometry x="375" y="-70" width="100" height="40" as="geometry" />
        </mxCell>
        <mxCell id="8FBa52UY_1ct1oGuE3lu-10" value="Attribute" style="ellipse;whiteSpace=wrap;html=1;align=center;" vertex="1" parent="1">
          <mxGeometry x="520" y="-60" width="100" height="40" as="geometry" />
        </mxCell>
        <mxCell id="8FBa52UY_1ct1oGuE3lu-11" value="Relationship" style="shape=rhombus;perimeter=rhombusPerimeter;whiteSpace=wrap;html=1;align=center;" vertex="1" parent="1">
          <mxGeometry x="560" y="350" width="120" height="60" as="geometry" />
        </mxCell>
        <mxCell id="8FBa52UY_1ct1oGuE3lu-12" value="Relationship" style="shape=rhombus;perimeter=rhombusPerimeter;whiteSpace=wrap;html=1;align=center;" vertex="1" parent="1">
          <mxGeometry x="270" y="260" width="120" height="60" as="geometry" />
        </mxCell>
        <mxCell id="8FBa52UY_1ct1oGuE3lu-14" value="Relationship" style="shape=rhombus;perimeter=rhombusPerimeter;whiteSpace=wrap;html=1;align=center;" vertex="1" parent="1">
          <mxGeometry x="-90" y="260" width="120" height="60" as="geometry" />
        </mxCell>
        <mxCell id="8FBa52UY_1ct1oGuE3lu-15" value="Relationship" style="shape=rhombus;perimeter=rhombusPerimeter;whiteSpace=wrap;html=1;align=center;" vertex="1" parent="1">
          <mxGeometry x="120" y="580" width="120" height="60" as="geometry" />
        </mxCell>
        <mxCell id="8FBa52UY_1ct1oGuE3lu-16" value="Entity" style="shape=ext;margin=3;double=1;whiteSpace=wrap;html=1;align=center;" vertex="1" parent="1">
          <mxGeometry x="560" y="520" width="100" height="40" as="geometry" />
        </mxCell>
        <mxCell id="8FBa52UY_1ct1oGuE3lu-17" value="Relationship" style="shape=rhombus;double=1;perimeter=rhombusPerimeter;whiteSpace=wrap;html=1;align=center;" vertex="1" parent="1">
          <mxGeometry x="305" y="470" width="120" height="60" as="geometry" />
        </mxCell>
        <mxCell id="8FBa52UY_1ct1oGuE3lu-18" value="" style="endArrow=none;html=1;rounded=0;entryX=0.5;entryY=1;entryDx=0;entryDy=0;exitX=0.5;exitY=0;exitDx=0;exitDy=0;" edge="1" parent="1" source="8FBa52UY_1ct1oGuE3lu-11" target="8FBa52UY_1ct1oGuE3lu-4">
          <mxGeometry relative="1" as="geometry">
            <mxPoint x="300" y="240" as="sourcePoint" />
            <mxPoint x="460" y="240" as="targetPoint" />
          </mxGeometry>
        </mxCell>
        <mxCell id="8FBa52UY_1ct1oGuE3lu-20" value="" style="endArrow=none;html=1;rounded=0;entryX=0.5;entryY=1;entryDx=0;entryDy=0;exitX=1;exitY=0.5;exitDx=0;exitDy=0;" edge="1" parent="1" source="8FBa52UY_1ct1oGuE3lu-5" target="8FBa52UY_1ct1oGuE3lu-11">
          <mxGeometry relative="1" as="geometry">
            <mxPoint x="300" y="400" as="sourcePoint" />
            <mxPoint x="460" y="400" as="targetPoint" />
          </mxGeometry>
        </mxCell>
        <mxCell id="8FBa52UY_1ct1oGuE3lu-21" value="" style="endArrow=none;html=1;rounded=0;exitX=0.4;exitY=1;exitDx=0;exitDy=0;exitPerimeter=0;entryX=0;entryY=0.5;entryDx=0;entryDy=0;" edge="1" parent="1" source="8FBa52UY_1ct1oGuE3lu-2" target="8FBa52UY_1ct1oGuE3lu-12">
          <mxGeometry relative="1" as="geometry">
            <mxPoint x="300" y="350" as="sourcePoint" />
            <mxPoint x="460" y="350" as="targetPoint" />
          </mxGeometry>
        </mxCell>
        <mxCell id="8FBa52UY_1ct1oGuE3lu-22" value="" style="endArrow=none;html=1;rounded=0;entryX=0;entryY=1;entryDx=0;entryDy=0;exitX=1;exitY=0.5;exitDx=0;exitDy=0;" edge="1" parent="1" source="8FBa52UY_1ct1oGuE3lu-12" target="8FBa52UY_1ct1oGuE3lu-4">
          <mxGeometry relative="1" as="geometry">
            <mxPoint x="360" y="240" as="sourcePoint" />
            <mxPoint x="520" y="240" as="targetPoint" />
          </mxGeometry>
        </mxCell>
        <mxCell id="8FBa52UY_1ct1oGuE3lu-23" value="" style="endArrow=none;html=1;rounded=0;entryX=0.5;entryY=1;entryDx=0;entryDy=0;exitX=0.5;exitY=0;exitDx=0;exitDy=0;" edge="1" parent="1" source="8FBa52UY_1ct1oGuE3lu-12" target="8FBa52UY_1ct1oGuE3lu-3">
          <mxGeometry relative="1" as="geometry">
            <mxPoint x="240" y="200" as="sourcePoint" />
            <mxPoint x="400" y="200" as="targetPoint" />
          </mxGeometry>
        </mxCell>
        <mxCell id="8FBa52UY_1ct1oGuE3lu-24" value="" style="endArrow=none;html=1;rounded=0;exitX=1;exitY=1;exitDx=0;exitDy=0;entryX=0;entryY=0.5;entryDx=0;entryDy=0;" edge="1" parent="1" source="8FBa52UY_1ct1oGuE3lu-5" target="8FBa52UY_1ct1oGuE3lu-17">
          <mxGeometry relative="1" as="geometry">
            <mxPoint x="300" y="440" as="sourcePoint" />
            <mxPoint x="460" y="440" as="targetPoint" />
          </mxGeometry>
        </mxCell>
        <mxCell id="8FBa52UY_1ct1oGuE3lu-25" value="" style="endArrow=none;html=1;rounded=0;entryX=0;entryY=0.5;entryDx=0;entryDy=0;exitX=1;exitY=0.5;exitDx=0;exitDy=0;" edge="1" parent="1" source="8FBa52UY_1ct1oGuE3lu-17" target="8FBa52UY_1ct1oGuE3lu-16">
          <mxGeometry relative="1" as="geometry">
            <mxPoint x="300" y="440" as="sourcePoint" />
            <mxPoint x="460" y="440" as="targetPoint" />
          </mxGeometry>
        </mxCell>
        <mxCell id="8FBa52UY_1ct1oGuE3lu-26" value="" style="endArrow=none;html=1;rounded=0;entryX=0;entryY=0.25;entryDx=0;entryDy=0;exitX=0.938;exitY=0.442;exitDx=0;exitDy=0;exitPerimeter=0;" edge="1" parent="1" source="8FBa52UY_1ct1oGuE3lu-17" target="8FBa52UY_1ct1oGuE3lu-16">
          <mxGeometry relative="1" as="geometry">
            <mxPoint x="300" y="440" as="sourcePoint" />
            <mxPoint x="460" y="440" as="targetPoint" />
          </mxGeometry>
        </mxCell>
        <mxCell id="8FBa52UY_1ct1oGuE3lu-27" value="" style="endArrow=none;html=1;rounded=0;exitX=0.5;exitY=1;exitDx=0;exitDy=0;entryX=0;entryY=0;entryDx=0;entryDy=0;" edge="1" parent="1" source="8FBa52UY_1ct1oGuE3lu-14" target="8FBa52UY_1ct1oGuE3lu-5">
          <mxGeometry relative="1" as="geometry">
            <mxPoint x="80" y="350" as="sourcePoint" />
            <mxPoint x="240" y="350" as="targetPoint" />
          </mxGeometry>
        </mxCell>
        <mxCell id="8FBa52UY_1ct1oGuE3lu-28" value="" style="endArrow=none;html=1;rounded=0;exitX=0.551;exitY=0.996;exitDx=0;exitDy=0;exitPerimeter=0;entryX=0.078;entryY=-0.069;entryDx=0;entryDy=0;entryPerimeter=0;" edge="1" parent="1" source="8FBa52UY_1ct1oGuE3lu-14" target="8FBa52UY_1ct1oGuE3lu-5">
          <mxGeometry relative="1" as="geometry">
            <mxPoint x="80" y="350" as="sourcePoint" />
            <mxPoint x="240" y="350" as="targetPoint" />
          </mxGeometry>
        </mxCell>
      </root>
    </mxGraphModel>
  </diagram>
</mxfile>
